<?xml version="1.0" encoding="UTF-8"?>
<svg version="1.1" xmlns="http://www.w3.org/2000/svg" width="225" height="225">
<path d="M0 0 C74.25 0 148.5 0 225 0 C225 74.25 225 148.5 225 225 C150.75 225 76.5 225 0 225 C0 150.75 0 76.5 0 0 Z " fill="#FDFDFD" transform="translate(0,0)"/>
<path d="M0 0 C28.85536443 -0.12049101 28.85536443 -0.12049101 43.26225281 -0.1507616 C51.00757468 -0.16728968 58.75279807 -0.18816375 66.49804688 -0.22631836 C73.29972159 -0.2598083 80.10128976 -0.27692071 86.90304184 -0.28463173 C89.48058621 -0.29011745 92.05812566 -0.30082698 94.63562393 -0.31719017 C135.02278103 -0.56307513 135.02278103 -0.56307513 152 6.6875 C152.85899902 7.03562744 153.71799805 7.38375488 154.60302734 7.74243164 C175.59465567 16.4814104 195.04043904 31.40605911 207 51 C207.98226562 52.56814453 207.98226562 52.56814453 208.984375 54.16796875 C218.87930355 70.40329173 224.63041628 87.87737275 224 107 C216.74 107 209.48 107 202 107 C200.64329939 104.28659878 200.58827646 101.76742599 200.25 98.75 C197.26438402 77.27990861 185.45803342 56.00914944 168.1015625 42.79296875 C147.01660722 27.45845582 123.27773904 21.05095145 97.36010742 24.76904297 C78.1279532 28.0133425 61.77792292 37.24694698 48 51 C47.38898437 51.59941406 46.77796875 52.19882812 46.1484375 52.81640625 C31.82137889 67.96121935 26.6633358 87.05517174 23 107 C15.41 107 7.82 107 0 107 C0 71.69 0 36.38 0 0 Z " fill="#404E6F" transform="translate(0,0)"/>
<path d="M0 0 C7.59 0 15.18 0 23 0 C23.53625 2.805 24.0725 5.61 24.625 8.5 C29.64269645 32.86657193 41.15222384 53.25072812 61.70703125 67.90234375 C82.69121788 81.26949466 106.21645983 86.22708596 130.875 81.9375 C153.3500118 76.67263536 173.92811069 62.93850843 186.6875 43.6875 C195.15282214 29.78158799 198.98828969 15.77562546 202 0 C209.26 0 216.52 0 224 0 C225.2179544 24.35908804 214.10546751 49.06796615 198.42578125 67.3203125 C197.62527344 68.20460938 196.82476562 69.08890625 196 70 C195.56349121 70.4856543 195.12698242 70.97130859 194.67724609 71.47167969 C181.2801818 86.18718522 164.3732278 96.16262657 145.5 102.3125 C144.76555664 102.55516602 144.03111328 102.79783203 143.27441406 103.04785156 C127.16086819 108.00748453 110.61187494 107.26292232 93.9453125 107.1953125 C91.23005278 107.19045481 88.51479322 107.1886339 85.79953003 107.18673706 C79.4180055 107.1805612 73.03655083 107.16420407 66.65505683 107.14403808 C58.66458263 107.1193445 50.67409669 107.10851026 42.68359375 107.09765625 C28.45567497 107.07826932 14.22790828 107.03819003 0 107 C0 71.69 0 36.38 0 0 Z " fill="#404F6F" transform="translate(0,118)"/>
<path d="M0 0 C28.05 0 56.1 0 85 0 C85.103125 9.9825 85.20625 19.965 85.3125 30.25 C85.35802002 33.37758789 85.40354004 36.50517578 85.45043945 39.72753906 C85.46505911 42.24022351 85.47779627 44.7529199 85.48828125 47.265625 C85.51386108 48.5429248 85.53944092 49.82022461 85.5657959 51.13623047 C85.57203603 64.12068754 81.31586134 74.24186996 72.44921875 83.64453125 C62.75793392 92.78070669 51.42560831 94.38610021 38.75390625 94.2109375 C26.45231992 93.82223904 17.19027244 88.03501545 8.7890625 79.265625 C0.56992877 68.85711503 -0.30520946 56.37659492 -0.1953125 43.65234375 C-0.19229126 41.98516296 -0.19229126 41.98516296 -0.18920898 40.28430176 C-0.17881701 36.16865864 -0.15089493 32.05307477 -0.125 27.9375 C-0.08375 18.718125 -0.0425 9.49875 0 0 Z " fill="#6FB3B2" transform="translate(71,74)"/>
<path d="M0 0 C28.05 0 56.1 0 85 0 C85.103125 9.9825 85.20625 19.965 85.3125 30.25 C85.35802002 33.37758789 85.40354004 36.50517578 85.45043945 39.72753906 C85.46505911 42.24022351 85.47779627 44.7529199 85.48828125 47.265625 C85.51386108 48.5429248 85.53944092 49.82022461 85.5657959 51.13623047 C85.57203603 64.12068754 81.31586134 74.24186996 72.44921875 83.64453125 C62.75793392 92.78070669 51.42560831 94.38610021 38.75390625 94.2109375 C26.45231992 93.82223904 17.19027244 88.03501545 8.7890625 79.265625 C0.56992877 68.85711503 -0.30520946 56.37659492 -0.1953125 43.65234375 C-0.19229126 41.98516296 -0.19229126 41.98516296 -0.18920898 40.28430176 C-0.17881701 36.16865864 -0.15089493 32.05307477 -0.125 27.9375 C-0.08375 18.718125 -0.0425 9.49875 0 0 Z M8 8 C8 16.25 8 24.5 8 33 C14.82566903 38.50763311 14.82566903 38.50763311 18.60546875 37.5390625 C19.39566406 37.03117187 20.18585938 36.52328125 21 36 C22.02738281 35.43023437 23.05476563 34.86046875 24.11328125 34.2734375 C25.16902344 33.64695312 26.22476563 33.02046875 27.3125 32.375 C28.38113281 31.74335937 29.44976562 31.11171875 30.55078125 30.4609375 C31.35902344 29.97882813 32.16726562 29.49671875 33 29 C33.54896526 32.38789988 33.40513266 34.84571944 32 38 C29.73391452 39.84524103 27.75247996 41.2567828 25.25 42.6875 C24.62915527 43.05037109 24.00831055 43.41324219 23.36865234 43.78710938 C20.35692271 45.37114425 18.6422725 46.17356208 15.296875 45.26953125 C14.53890625 44.85058594 13.7809375 44.43164062 13 44 C11.67323492 43.64141484 10.34164079 43.2981424 9 43 C8.64527893 46.0742493 8.48966313 48.93797877 9 52 C11.53683498 54.80263312 11.53683498 54.80263312 15 56 C19.41475559 55.63458949 22.56651389 53.70155754 26.3125 51.4375 C27.38113281 50.79683594 28.44976562 50.15617187 29.55078125 49.49609375 C30.35902344 49.00238281 31.16726562 48.50867188 32 48 C32.33 50.97 32.66 53.94 33 57 C32.360625 57.226875 31.72125 57.45375 31.0625 57.6875 C28.35641409 58.8472511 26.06860387 60.16351792 23.5625 61.6875 C20.42767477 63.46616123 19.32118987 64.01189592 15.625 63.875 C13.75 63.25 11.875 62.625 10 62 C10.42081201 68.73299208 15.59845481 73.92262534 20.375 78.25 C28.73892818 85.07124809 37.41715164 86.83596757 48.03857422 86.2265625 C55.92583105 85.31551267 63.86991973 81.04850896 69 75 C74.00295476 67.88442862 77.27953705 61.3513899 77.1953125 52.5078125 C77.18886719 51.30898437 77.18242187 50.11015625 77.17578125 48.875 C77.15902344 47.6375 77.14226562 46.4 77.125 45.125 C77.11597656 43.86429688 77.10695313 42.60359375 77.09765625 41.3046875 C77.07415808 38.2029296 77.04130334 35.10156348 77 32 C74.22162652 33.05402521 71.98982567 34.00730465 69.5625 35.75 C67 37 67 37 63.875 36.25 C62.92625 35.8375 61.9775 35.425 61 35 C60.01 34.67 59.02 34.34 58 34 C58 31.03 58 28.06 58 25 C59.051875 25.70125 60.10375 26.4025 61.1875 27.125 C64.14299258 28.848893 64.14299258 28.848893 67.5 28.5 C68.325 28.005 69.15 27.51 70 27 C71.27068473 26.29140013 72.54152464 25.58307846 73.8125 24.875 C74.864375 24.25625 75.91625 23.6375 77 23 C77 18.05 77 13.1 77 8 C54.23 8 31.46 8 8 8 Z " fill="#3C4B6C" transform="translate(71,74)"/>
<path d="M0 0 C0.33 0 0.66 0 1 0 C1.15855469 1.12535156 1.31710938 2.25070313 1.48046875 3.41015625 C5.97836262 33.69044249 19.85673817 60.51464742 44.22265625 79.59765625 C52.2839339 85.42135497 60.96844065 89.90191454 70 94 C70.89847656 94.41121094 71.79695313 94.82242188 72.72265625 95.24609375 C81.99617471 99.02310523 92.18075631 100.29896405 102 102 C102 102.33 102 102.66 102 103 C68.34 103 34.68 103 0 103 C0 69.01 0 35.02 0 0 Z " fill="#FDFDFD" transform="translate(0,122)"/>
<path d="M0 0 C33.99 0 67.98 0 103 0 C103 0.33 103 0.66 103 1 C102.20078125 1.10957031 101.4015625 1.21914063 100.578125 1.33203125 C76.9478502 4.74344416 53.18939167 13.03166517 36.32421875 30.76171875 C35 32 35 32 33 32 C32.75378906 32.57105469 32.50757813 33.14210937 32.25390625 33.73046875 C30.79562004 36.36992137 29.04711885 38.15823313 26.9375 40.3125 C10.90451766 57.86629578 2.6899506 81.60752587 1 105 C0.67 105 0.34 105 0 105 C0 70.35 0 35.7 0 0 Z " fill="#FDFDFD" transform="translate(0,0)"/>
<path d="M0 0 C0.11742499 4.29143157 0.18765996 8.58244273 0.25 12.875 C0.28351563 14.07898438 0.31703125 15.28296875 0.3515625 16.5234375 C0.47235998 27.63680595 -2.11822964 36.87356271 -10 45 C-12.84465163 47.32744225 -15.78684588 49.22168539 -19 51 C-19.60328125 51.34160156 -20.2065625 51.68320313 -20.828125 52.03515625 C-27.94275671 55.36047325 -37.20759444 55.23292992 -44.6875 53.30859375 C-53.83397007 49.51344384 -63.06711044 42.29926222 -67 33 C-67 32.01 -67 31.02 -67 30 C-65.948125 30.5259375 -65.948125 30.5259375 -64.875 31.0625 C-61.21865685 32.25478581 -59.70451385 32.1183438 -56 31 C-53.32645515 29.51286642 -50.74394502 27.93360096 -48.171875 26.27734375 C-46 25 -46 25 -44 25 C-44 21.7 -44 18.4 -44 15 C-42.205625 16.2375 -42.205625 16.2375 -40.375 17.5 C-37.92735514 18.79313859 -37.92735514 18.79313859 -35 19 C-30.98824167 17.33165891 -27.55596711 15.27288073 -23.94140625 12.890625 C-21 11 -21 11 -19 11 C-19 8.03 -19 5.06 -19 2 C-17.88625 2.4640625 -17.88625 2.4640625 -16.75 2.9375 C-13.44219654 4.25399218 -13.44219654 4.25399218 -10 5 C-7.86620831 4.0424497 -7.86620831 4.0424497 -5.875 2.5625 C-2.17438692 0 -2.17438692 0 0 0 Z " fill="#FCFDFD" transform="translate(148,106)"/>
<path d="M0 0 C0.56818623 3.15659014 0.75811718 5.86508301 0 9 C-2.65350786 11.65350786 -5.70078223 13.25859163 -9 15 C-9.9075 15.639375 -10.815 16.27875 -11.75 16.9375 C-14.68548768 18.32370252 -15.96069153 18.06375796 -19 17 C-19.928125 16.690625 -20.85625 16.38125 -21.8125 16.0625 C-24 14 -24 14 -24.3125 11.578125 C-24.3125 9.03369115 -24.21401169 6.53484953 -24 4 C-23.51273437 4.3815625 -23.02546875 4.763125 -22.5234375 5.15625 C-19.87414289 6.81326336 -18.12790502 7.61631032 -15 8 C-11.14791055 6.41336443 -3.82794814 0 0 0 Z " fill="#72B6B4" transform="translate(128,50)"/>
<path d="M0 0 C0.88855167 3.28080615 1.08336783 5.74989652 0 9 C-5.03123721 13.33727346 -11.24660951 17.42179876 -18 18 C-21.3125 16.625 -21.3125 16.625 -24 14 C-24.51033687 10.93797877 -24.35472107 8.0742493 -24 5 C-22.88625 5.4640625 -22.88625 5.4640625 -21.75 5.9375 C-20.8425 6.288125 -19.935 6.63875 -19 7 C-18.43152344 7.268125 -17.86304687 7.53625 -17.27734375 7.8125 C-13.5612741 8.11845428 -10.86450065 5.95242875 -7.8125 4.0625 C-1.06427379 0 -1.06427379 0 0 0 Z " fill="#F9FAFA" transform="translate(104,112)"/>
<path d="M0 0 C0 2.97 0 5.94 0 9 C-2.21954651 10.37257477 -4.44835409 11.72259151 -6.6875 13.0625 C-7.31333984 13.45244141 -7.93917969 13.84238281 -8.58398438 14.24414062 C-11.46541768 15.94886295 -13.38956507 17.04201027 -16.78125 16.80859375 C-17.5134375 16.54175781 -18.245625 16.27492188 -19 16 C-20.3921875 15.505 -20.3921875 15.505 -21.8125 15 C-24 13 -24 13 -24.3125 10.80078125 C-24.3125 8.51329849 -24.21478658 6.27673777 -24 4 C-22.9171875 4.4640625 -22.9171875 4.4640625 -21.8125 4.9375 C-19.04505131 5.98298061 -16.94932611 6.76201403 -14 7 C-10.86762073 5.60283679 -10.86762073 5.60283679 -7.8125 3.5625 C-2.15851272 0 -2.15851272 0 0 0 Z " fill="#F9FAFA" transform="translate(128,99)"/>
<path d="M0 0 C1.06627566 3.34099708 1.222236 5.68462299 0 9 C-4.01520435 13.10715559 -9.50254418 16.35308899 -15 18 C-19.04840177 17.56747844 -21.20481658 15.79518342 -24 13 C-24.07179964 11.48071962 -24.08392007 9.95832518 -24.0625 8.4375 C-24.05347656 7.61121094 -24.04445313 6.78492187 -24.03515625 5.93359375 C-24.02355469 5.29550781 -24.01195313 4.65742187 -24 4 C-22.700625 4.7734375 -22.700625 4.7734375 -21.375 5.5625 C-17.34491327 7.27901842 -16.13920129 7.35320042 -12 6 C-9.32980446 4.50831669 -6.74340468 2.93325301 -4.171875 1.27734375 C-2 0 -2 0 0 0 Z " fill="#3C4B6C" transform="translate(128,108)"/>
<path d="M0 0 C0.56818623 3.15659014 0.75811718 5.86508301 0 9 C-2.65350786 11.65350786 -5.70078223 13.25859163 -9 15 C-9.9075 15.639375 -10.815 16.27875 -11.75 16.9375 C-14 18 -14 18 -16.5 17.9375 C-19.77407289 16.70972267 -21.64611762 15.6228975 -24 13 C-24.42847047 10.19887429 -24.23815388 7.85784653 -24 5 C-21 6 -18 7 -15 8 C-12.52324666 6.76745098 -10.22679287 5.49970676 -7.875 4.0625 C-1.07929883 0 -1.07929883 0 0 0 Z " fill="#3C4B6D" transform="translate(128,89)"/>
<path d="M0 0 C7.59 0 15.18 0 23 0 C23 2.31 23 4.62 23 7 C15.41 7 7.82 7 0 7 C0 4.69 0 2.38 0 0 Z " fill="#404E6E" transform="translate(202,109)"/>
<path d="M0 0 C7.59 0 15.18 0 23 0 C23 2.31 23 4.62 23 7 C15.41 7 7.82 7 0 7 C0 4.69 0 2.38 0 0 Z " fill="#404E6E" transform="translate(0,109)"/>
<path d="M0 0 C2.625 0.375 2.625 0.375 5 1 C5.625 3.375 5.625 3.375 6 6 C4 8 4 8 1.375 8.125 C0.59125 8.08375 -0.1925 8.0425 -1 8 C-1.625 5.125 -1.625 5.125 -2 2 C-1.34 1.34 -0.68 0.68 0 0 Z " fill="#9EA6B7" transform="translate(24,160)"/>
<path d="M0 0 C1.125 4.75 1.125 4.75 0 7 C-2.375 7.125 -2.375 7.125 -5 7 C-5.66 6.34 -6.32 5.68 -7 5 C-6.75 2.4375 -6.75 2.4375 -6 0 C-3.50907189 -1.24546405 -2.58919267 -0.7767578 0 0 Z " fill="#D2D7DE" transform="translate(129,10)"/>
<path d="M0 0 C2.625 0.375 2.625 0.375 5 1 C5.625 3.375 5.625 3.375 6 6 C4 8 4 8 1.375 8.125 C0.59125 8.08375 -0.1925 8.0425 -1 8 C-1.625 5.125 -1.625 5.125 -2 2 C-1.34 1.34 -0.68 0.68 0 0 Z " fill="#D5D9E0" transform="translate(77,14)"/>
<path d="M0 0 C2.625 0.375 2.625 0.375 5 1 C5.625 3.375 5.625 3.375 6 6 C5.34 6.66 4.68 7.32 4 8 C1.375 7.625 1.375 7.625 -1 7 C-1.625 4.625 -1.625 4.625 -2 2 C-1.34 1.34 -0.68 0.68 0 0 Z " fill="#D3D8E0" transform="translate(122,209)"/>
<path d="M0 0 C2.625 0.375 2.625 0.375 5 1 C5.04254356 2.99954746 5.04080783 5.00041636 5 7 C4 8 4 8 1.5 8.125 C-1 8 -1 8 -2 7 C-2.1875 4.5625 -2.1875 4.5625 -2 2 C-1.34 1.34 -0.68 0.68 0 0 Z " fill="#D2D7DE" transform="translate(76,203)"/>
<path d="M0 0 C2.5 0.125 2.5 0.125 3.5 1.125 C3.625 3.625 3.625 3.625 3.5 6.125 C2.5 7.125 2.5 7.125 0.0625 7.3125 C-2.5 7.125 -2.5 7.125 -4.5 5.125 C-3.7519084 0.18759542 -3.7519084 0.18759542 0 0 Z " fill="#DCE1E7" transform="translate(26.5,57.875)"/>
<path d="M0 0 C0.66 0 1.32 0 2 0 C2.33 1.32 2.66 2.64 3 4 C3.66 4 4.32 4 5 4 C5 3.01 5 2.02 5 1 C5.66 1 6.32 1 7 1 C6.67 3.31 6.34 5.62 6 8 C5.01 8.33 4.02 8.66 3 9 C2.67 8.01 2.34 7.02 2 6 C1.01 6.66 0.02 7.32 -1 8 C-0.67 5.36 -0.34 2.72 0 0 Z " fill="#BCC3CC" transform="translate(135,11)"/>
<path d="M0 0 C2.16874252 0.50603992 3.99967627 0.99983813 6 2 C5.67 3.65 5.34 5.3 5 7 C1.48283697 7 0.62878252 6.17554415 -2 4 C-1.34 2.68 -0.68 1.36 0 0 Z " fill="#B8C0CB" transform="translate(188,173)"/>
<path d="M0 0 C2.31 0.33 4.62 0.66 7 1 C6.67 1.99 6.34 2.98 6 4 C5.01 4 4.02 4 3 4 C3 4.66 3 5.32 3 6 C3.99 6 4.98 6 6 6 C6 6.66 6 7.32 6 8 C3.36 7.34 0.72 6.68 -2 6 C-2 5.34 -2 4.68 -2 4 C-1.01 3.34 -0.02 2.68 1 2 C0.67 1.34 0.34 0.68 0 0 Z " fill="#C4CAD4" transform="translate(207,136)"/>
<path d="M0 0 C0.66 0.66 1.32 1.32 2 2 C1.34 2 0.68 2 0 2 C0 2.66 0 3.32 0 4 C0.99 3.67 1.98 3.34 3 3 C2.25 4.9375 2.25 4.9375 1 7 C-1.125 7.75 -1.125 7.75 -3 8 C-3.66 6.68 -4.32 5.36 -5 4 C-3.35 2.68 -1.7 1.36 0 0 Z " fill="#C1C6D1" transform="translate(193,48)"/>
<path d="M0 0 C2.375 0.1875 2.375 0.1875 5 1 C6.3125 3.5625 6.3125 3.5625 7 6 C5.68 6 4.36 6 3 6 C3 6.66 3 7.32 3 8 C2.34 8 1.68 8 1 8 C-0.42944945 5.64561267 -1.08661261 4.51967567 -0.625 1.75 C-0.41875 1.1725 -0.2125 0.595 0 0 Z " fill="#BFC6D0" transform="translate(66,19)"/>
<path d="M0 0 C-0.20625 0.61875 -0.4125 1.2375 -0.625 1.875 C-0.74875 2.57625 -0.8725 3.2775 -1 4 C-0.34 4.66 0.32 5.32 1 6 C-1.31 6.66 -3.62 7.32 -6 8 C-5.67 6.68 -5.34 5.36 -5 4 C-5.66 3.67 -6.32 3.34 -7 3 C-7 2.34 -7 1.68 -7 1 C-2.25 0 -2.25 0 0 0 Z " fill="#CED3DB" transform="translate(213,86)"/>
<path d="M0 0 C2 2 2 2 2.125 5.125 C2.08375 6.07375 2.0425 7.0225 2 8 C0.68 7.67 -0.64 7.34 -2 7 C-2 7.66 -2 8.32 -2 9 C-2.66 9 -3.32 9 -4 9 C-4.33 6.69 -4.66 4.38 -5 2 C-2.525 2.99 -2.525 2.99 0 4 C0 2.68 0 1.36 0 0 Z " fill="#D3D8E0" transform="translate(137,206)"/>
<path d="M0 0 C2.64 0 5.28 0 8 0 C8 0.99 8 1.98 8 3 C5 5.1875 5 5.1875 2 7 C2.33 5.35 2.66 3.7 3 2 C2.01 2 1.02 2 0 2 C0 1.34 0 0.68 0 0 Z " fill="#C9CED7" transform="translate(202,77)"/>
<path d="M0 0 C2.97 0 5.94 0 9 0 C9 0.66 9 1.32 9 2 C8.01 2 7.02 2 6 2 C6.33 3.32 6.66 4.64 7 6 C4.625 5.25 4.625 5.25 2 4 C1.34 2.68 0.68 1.36 0 0 Z " fill="#C8CED6" transform="translate(202,148)"/>
<path d="M0 0 C-0.33 1.32 -0.66 2.64 -1 4 C-2.98 4.33 -4.96 4.66 -7 5 C-7.33 3.35 -7.66 1.7 -8 0 C-4.94736336 -0.98120464 -3.05263664 -0.98120464 0 0 Z " fill="#C8CCD5" transform="translate(18,133)"/>
<path d="M0 0 C-1.98 2.97 -1.98 2.97 -4 6 C-4.66 5.67 -5.32 5.34 -6 5 C-6 4.34 -6 3.68 -6 3 C-6.99 2.67 -7.98 2.34 -9 2 C-9 1.34 -9 0.68 -9 0 C-5.67465243 -1.10844919 -3.37817425 -0.84454356 0 0 Z " fill="#C7CDD6" transform="translate(202,59)"/>
<path d="M0 0 C0 1.65 0 3.3 0 5 C-0.99 5 -1.98 5 -3 5 C-3 5.66 -3 6.32 -3 7 C-1.68 6.67 -0.36 6.34 1 6 C1 6.66 1 7.32 1 8 C-0.66611905 8.042721 -2.33382885 8.04063832 -4 8 C-5 7 -5 7 -5.0625 3.9375 C-5.041875 2.968125 -5.02125 1.99875 -5 1 C-3 0 -3 0 0 0 Z " fill="#C9CFD7" transform="translate(101,9)"/>
<path d="M0 0 C-0.75 5.75 -0.75 5.75 -3 8 C-3.33 7.01 -3.66 6.02 -4 5 C-6.00016466 3.79117904 -6.00016466 3.79117904 -8 3 C-3.375 0 -3.375 0 0 0 Z " fill="#C9CED6" transform="translate(48,185)"/>
<path d="M0 0 C2.64 0.66 5.28 1.32 8 2 C7.01 2.66 6.02 3.32 5 4 C3.80767387 6.05003955 3.80767387 6.05003955 3 8 C0.9375 5.6875 0.9375 5.6875 -1 3 C-0.67 2.01 -0.34 1.02 0 0 Z " fill="#C8CDD6" transform="translate(194,165)"/>
<path d="M0 0 C-0.66 0.66 -1.32 1.32 -2 2 C-1.01 2.33 -0.02 2.66 1 3 C1 3.66 1 4.32 1 5 C-1.31 5.66 -3.62 6.32 -6 7 C-6 6.34 -6 5.68 -6 5 C-5.34 5 -4.68 5 -4 5 C-4 4.01 -4 3.02 -4 2 C-5.32 1.67 -6.64 1.34 -8 1 C-3.375 -1.125 -3.375 -1.125 0 0 Z " fill="#D2D6DD" transform="translate(20,142)"/>
<path d="M0 0 C0 0.99 0 1.98 0 3 C-2.35438733 4.42944945 -3.48032433 5.08661261 -6.25 4.625 C-6.8275 4.41875 -7.405 4.2125 -8 4 C-8 2.68 -8 1.36 -8 0 C-4.71023192 -1.09658936 -3.28696233 -0.79953138 0 0 Z " fill="#CACFD8" transform="translate(207,68)"/>
<path d="M0 0 C0.66 0 1.32 0 2 0 C2.33 0.66 2.66 1.32 3 2 C5.52733235 2.65555119 5.52733235 2.65555119 8 3 C7.01 4.485 7.01 4.485 6 6 C6 6.66 6 7.32 6 8 C3.69 7.34 1.38 6.68 -1 6 C-1 5.34 -1 4.68 -1 4 C-0.34 3.67 0.32 3.34 1 3 C0.67 2.01 0.34 1.02 0 0 Z " fill="#CACFD7" transform="translate(18,67)"/>
<path d="M0 0 C3.465 1.485 3.465 1.485 7 3 C7 3.66 7 4.32 7 5 C6.01 5 5.02 5 4 5 C3.67 5.99 3.34 6.98 3 8 C2.34 8 1.68 8 1 8 C0.34 5.69 -0.32 3.38 -1 1 C-0.67 0.67 -0.34 0.34 0 0 Z " fill="#C9CED7" transform="translate(44,34)"/>
<path d="M0 0 C2.62187494 1.04874998 3.79371361 1.64931313 5.25 4.125 C5.4975 4.74375 5.745 5.3625 6 6 C5.01 6 4.02 6 3 6 C2.67 6.66 2.34 7.32 2 8 C1.34 8 0.68 8 0 8 C0 5.36 0 2.72 0 0 Z " fill="#CDD2D9" transform="translate(144,204)"/>
<path d="M0 0 C1.65 0.33 3.3 0.66 5 1 C4.67 2.32 4.34 3.64 4 5 C3.34 5 2.68 5 2 5 C1.67 5.99 1.34 6.98 1 8 C0.67 7.01 0.34 6.02 0 5 C-0.99 5.495 -0.99 5.495 -2 6 C-1.34 4.02 -0.68 2.04 0 0 Z " fill="#C8CED8" transform="translate(66,199)"/>
<path d="M0 0 C2.64 0.66 5.28 1.32 8 2 C8 2.66 8 3.32 8 4 C6.68 3.67 5.36 3.34 4 3 C4.66 4.65 5.32 6.3 6 8 C3.0625 7.625 3.0625 7.625 0 7 C-0.33 6.34 -0.66 5.68 -1 5 C0.32 5 1.64 5 3 5 C3 4.01 3 3.02 3 2 C2.01 2 1.02 2 0 2 C0 1.34 0 0.68 0 0 Z " fill="#D3D7E0" transform="translate(14,77)"/>
<path d="M0 0 C1.65 0 3.3 0 5 0 C5 0.66 5 1.32 5 2 C4.01 2 3.02 2 2 2 C2 2.66 2 3.32 2 4 C2.66 4.33 3.32 4.66 4 5 C3.01 5 2.02 5 1 5 C1 5.66 1 6.32 1 7 C1.99 7.33 2.98 7.66 4 8 C2.35 8 0.7 8 -1 8 C-0.67 5.36 -0.34 2.72 0 0 Z " fill="#CCD2DA" transform="translate(95,208)"/>
<path d="M0 0 C1.32 0.66 2.64 1.32 4 2 C4 3.32 4 4.64 4 6 C2.824375 5.9690625 2.824375 5.9690625 1.625 5.9375 C-0.98114961 5.81315937 -0.98114961 5.81315937 -3 7 C-1.125 2.25 -1.125 2.25 0 0 Z " fill="#C0C6D1" transform="translate(58,193)"/>
<path d="M0 0 C1.65 0.33 3.3 0.66 5 1 C5 1.66 5 2.32 5 3 C4.01 3 3.02 3 2 3 C2.33 3.66 2.66 4.32 3 5 C2.01 5.33 1.02 5.66 0 6 C0.66 6.66 1.32 7.32 2 8 C0.0625 7.625 0.0625 7.625 -2 7 C-2.33 6.34 -2.66 5.68 -3 5 C-1.5625 2.375 -1.5625 2.375 0 0 Z " fill="#D5DAE0" transform="translate(165,24)"/>
<path d="M0 0 C1.32 1.32 2.64 2.64 4 4 C3.01 4 2.02 4 1 4 C1.33 4.66 1.66 5.32 2 6 C0.68 5.67 -0.64 5.34 -2 5 C-1.34 6.32 -0.68 7.64 0 9 C-1.32 8.34 -2.64 7.68 -4 7 C-2.79618552 4.50638429 -1.54571278 2.31856917 0 0 Z " fill="#D7DBE2" transform="translate(179,33)"/>
<path d="M0 0 C0.66 0 1.32 0 2 0 C2 2.97 2 5.94 2 9 C1.67 8.01 1.34 7.02 1 6 C-0.65 6.33 -2.3 6.66 -4 7 C-2.79618552 4.50638429 -1.54571278 2.31856917 0 0 Z " fill="#CCD2DA" transform="translate(148,15)"/>
<path d="M0 0 C0.66 0 1.32 0 2 0 C2.33 0.66 2.66 1.32 3 2 C4.32 2 5.64 2 7 2 C6.67 3.32 6.34 4.64 6 6 C5.34 5.34 4.68 4.68 4 4 C1.89179203 4.3185177 1.89179203 4.3185177 0 5 C-0.5625 3.0625 -0.5625 3.0625 -1 1 C-0.67 0.67 -0.34 0.34 0 0 Z " fill="#CED2DA" transform="translate(199,156)"/>
<path d="M0 0 C2.0625 0.4375 2.0625 0.4375 4 1 C3.67 1.33 3.34 1.66 3 2 C3.66 2.33 4.32 2.66 5 3 C5 3.66 5 4.32 5 5 C4.01 5 3.02 5 2 5 C1.67 5.99 1.34 6.98 1 8 C0.34 5.69 -0.32 3.38 -1 1 C-0.67 0.67 -0.34 0.34 0 0 Z " fill="#CBD0D9" transform="translate(87,11)"/>
<path d="M0 0 C1.65 0.33 3.3 0.66 5 1 C3.68 1.33 2.36 1.66 1 2 C1 2.66 1 3.32 1 4 C1.99 4 2.98 4 4 4 C4 4.66 4 5.32 4 6 C2.35 6.66 0.7 7.32 -1 8 C-0.67 5.36 -0.34 2.72 0 0 Z " fill="#CDD2DB" transform="translate(86,206)"/>
<path d="M0 0 C0.556875 0.33 1.11375 0.66 1.6875 1 C4.30284522 2.1309601 6.1806646 2.15662974 9 2 C8.01 3.32 7.02 4.64 6 6 C3.37812506 4.95125002 2.20628639 4.35068687 0.75 1.875 C0.5025 1.25625 0.255 0.6375 0 0 Z " fill="#BEC4CF" transform="translate(180,182)"/>
<path d="M0 0 C0.598125 0.33 1.19625 0.66 1.8125 1 C4.05386471 2.20787988 4.05386471 2.20787988 7 2 C7.66 2.33 8.32 2.66 9 3 C8.01 4.485 8.01 4.485 7 6 C4.50638429 4.79618552 2.31856917 3.54571278 0 2 C0 1.34 0 0.68 0 0 Z " fill="#C7CDD6" transform="translate(34,43)"/>
<path d="M0 0 C0.66 0 1.32 0 2 0 C2.33 1.98 2.66 3.96 3 6 C1.02 6.99 1.02 6.99 -1 8 C-0.67 5.36 -0.34 2.72 0 0 Z " fill="#CDD3DB" transform="translate(135,11)"/>
<path d="M0 0 C1.32 0.66 2.64 1.32 4 2 C3.67 2.99 3.34 3.98 3 5 C1.68 4.67 0.36 4.34 -1 4 C-0.67 2.68 -0.34 1.36 0 0 Z " fill="#404E6E" transform="translate(25,59)"/>
<path d="M0 0 C1.98 0.495 1.98 0.495 4 1 C3.67 2.32 3.34 3.64 3 5 C1.68 4.34 0.36 3.68 -1 3 C-0.67 2.01 -0.34 1.02 0 0 Z " fill="#425170" transform="translate(77,16)"/>
<path d="M0 0 C0.66 0.33 1.32 0.66 2 1 C1.484375 1.4125 0.96875 1.825 0.4375 2.25 C-0.036875 2.8275 -0.51125 3.405 -1 4 C-0.77242269 6.16299211 -0.77242269 6.16299211 0 8 C-1.32 7.34 -2.64 6.68 -4 6 C-3.6875 4.125 -3.6875 4.125 -3 2 C-2.01 1.34 -1.02 0.68 0 0 Z " fill="#CFD4DC" transform="translate(38,177)"/>
<path d="M0 0 C0.66 0.33 1.32 0.66 2 1 C1.484375 1.4125 0.96875 1.825 0.4375 2.25 C-0.036875 2.8275 -0.51125 3.405 -1 4 C-0.77242269 6.16299211 -0.77242269 6.16299211 0 8 C-1.32 7.34 -2.64 6.68 -4 6 C-3.6875 4.125 -3.6875 4.125 -3 2 C-2.01 1.34 -1.02 0.68 0 0 Z " fill="#CDD3DB" transform="translate(186,41)"/>
<path d="M0 0 C1.32 0 2.64 0 4 0 C3.67 1.65 3.34 3.3 3 5 C2.01 4.67 1.02 4.34 0 4 C0 2.68 0 1.36 0 0 Z " fill="#3B4A6B" transform="translate(124,11)"/>
<path d="M0 0 C0.99 0.33 1.98 0.66 3 1 C3 2.32 3 3.64 3 5 C1.68 4.67 0.36 4.34 -1 4 C-0.67 2.68 -0.34 1.36 0 0 Z " fill="#39486A" transform="translate(123,210)"/>
<path d="M0 0 C1.98 0.495 1.98 0.495 4 1 C3.67 1.99 3.34 2.98 3 4 C1.68 4 0.36 4 -1 4 C-0.67 2.68 -0.34 1.36 0 0 Z " fill="#3E4D6E" transform="translate(76,205)"/>
<path d="M0 0 C2.31 0.33 4.62 0.66 7 1 C6.67 1.99 6.34 2.98 6 4 C4.125 3.6875 4.125 3.6875 2 3 C1.34 2.01 0.68 1.02 0 0 Z " fill="#D7DCE2" transform="translate(207,136)"/>
</svg>
